<svg xmlns="http://www.w3.org/2000/svg" version="1.1" xmlns:xlink="http://www.w3.org/1999/xlink" xmlns:svgjs="http://svgjs.dev/svgjs" width="1000" height="287" viewBox="0 0 1000 287"><g transform="matrix(1,0,0,1,-0.6060606060606233,0.4264691901574622)"><svg viewBox="0 0 396 114" data-background-color="#ffffff" preserveAspectRatio="xMidYMid meet" height="287" width="1000" xmlns="http://www.w3.org/2000/svg" xmlns:xlink="http://www.w3.org/1999/xlink"><g id="tight-bounds" transform="matrix(1,0,0,1,0.2400000000000091,-0.16939891176986066)"><svg viewBox="0 0 395.52 114.33879782353974" height="114.33879782353974" width="395.52"><g><svg viewBox="0 0 397.4975999999999 114.91049181265741" height="114.33879782353974" width="395.52"><g><svg viewBox="0 0 397.4975999999999 114.91049181265741" height="114.91049181265741" width="397.4975999999999"><g><svg viewBox="0 0 397.4975999999999 114.91049181265741" height="114.91049181265741" width="397.4975999999999"><g><rect width="397.4975999999999" height="5.395438941973976" x="0" y="66.18486115376709" fill="#ca3433" opacity="1" stroke-width="0" stroke="transparent" fill-opacity="1" class="rect-in-0" data-fill-palette-color="primary" rx="1%" id="in-0" data-palette-color="#ca3433"></rect></g><g transform="matrix(1,0,0,1,0.9887999999999693,0)"><svg viewBox="0 0 395.52 59.828977583378894" height="59.828977583378894" width="395.52"><g transform="matrix(1,0,0,1,0,0)"><svg width="395.52" viewBox="-0.1 -35.25 274.33000000000004 41.5" height="59.828977583378894" data-palette-color="#ca3433"><path d="M24.95 0L18.5 0 16.8-8.1 7.9-8.1 6.25 0-0.1 0 8.6-34.55 16.3-34.55 24.95 0ZM12.35-29.7L8.9-12.9 15.85-12.9 12.35-29.7ZM45.05-2.1Q47.85-2.05 49.9-1.18 51.95-0.3 53.8 1.4L53.8 1.4 49.8 6.25Q47.65 3.4 45.17 1.98 42.7 0.55 38.95 0.55L38.95 0.55Q33.2 0.55 29.9-3.98 26.6-8.5 26.6-17.25L26.6-17.25Q26.6-26.1 29.92-30.68 33.25-35.25 39.3-35.25L39.3-35.25Q45.35-35.25 48.67-30.75 52-26.25 52-17.3L52-17.3Q52-11.1 50.15-7.6 48.3-4.1 45.05-2.1L45.05-2.1ZM33.3-17.25Q33.3-10.1 34.8-7.13 36.3-4.15 39.3-4.15L39.3-4.15Q42.4-4.15 43.87-7.1 45.35-10.05 45.35-17.3L45.35-17.3Q45.35-24.45 43.87-27.45 42.4-30.45 39.3-30.45L39.3-30.45Q36.25-30.45 34.77-27.45 33.3-24.45 33.3-17.25L33.3-17.25ZM78.09-34.55L78.09-9.7Q78.09-5.15 75.27-2.23 72.45 0.7 67.2 0.7L67.2 0.7Q61.85 0.7 59.05-2.18 56.25-5.05 56.25-9.7L56.25-9.7 56.25-34.55 62.6-34.55 62.6-10Q62.6-7.1 63.7-5.68 64.8-4.25 67.2-4.25L67.2-4.25Q69.55-4.25 70.65-5.68 71.75-7.1 71.75-10L71.75-10 71.75-34.55 78.09-34.55ZM105.54 0L99.09 0 97.39-8.1 88.49-8.1 86.84 0 80.49 0 89.19-34.55 96.89-34.55 105.54 0ZM92.94-29.7L89.49-12.9 96.44-12.9 92.94-29.7ZM105.84-34.55L127.39-34.55 126.69-29.55 119.59-29.55 119.59 0 113.24 0 113.24-29.55 105.84-29.55 105.84-34.55ZM152.79 0L145.94 0 139.84-13.95 139.24-13.95 136.79-13.95 136.79 0 130.44 0 130.44-34.55 138.59-34.55Q151.09-34.55 151.09-24.4L151.09-24.4Q151.09-21.25 149.69-18.82 148.29-16.4 145.49-15.15L145.49-15.15 152.79 0ZM138.89-18.55Q141.84-18.55 143.16-19.95 144.49-21.35 144.49-24.4L144.49-24.4Q144.49-27.25 143.11-28.58 141.74-29.9 138.59-29.9L138.59-29.9 136.79-29.9 136.79-18.55 138.89-18.55ZM177.94 0L171.49 0 169.79-8.1 160.89-8.1 159.24 0 152.89 0 161.59-34.55 169.29-34.55 177.94 0ZM165.34-29.7L161.89-12.9 168.84-12.9 165.34-29.7ZM188.53-34.55Q192.88-34.55 196.06-33.23 199.23-31.9 201.21-28.13 203.18-24.35 203.18-17.45L203.18-17.45Q203.18-7.7 199.31-3.85 195.43 0 189.18 0L189.18 0 180.83 0 180.83-34.55 188.53-34.55ZM189.48-29.8L187.18-29.8 187.18-4.75 189.53-4.75Q191.78-4.75 193.31-5.8 194.83-6.85 195.71-9.65 196.58-12.45 196.58-17.45L196.58-17.45Q196.58-22.55 195.66-25.25 194.73-27.95 193.21-28.88 191.68-29.8 189.48-29.8L189.48-29.8ZM207.93-34.55L225.08-34.55 224.43-29.8 214.28-29.8 214.28-19.9 223.13-19.9 223.13-15.2 214.28-15.2 214.28-4.8 225.08-4.8 225.08 0 207.93 0 207.93-34.55ZM251.93 0L245.08 0 238.98-13.95 238.38-13.95 235.93-13.95 235.93 0 229.58 0 229.58-34.55 237.73-34.55Q250.23-34.55 250.23-24.4L250.23-24.4Q250.23-21.25 248.83-18.82 247.43-16.4 244.63-15.15L244.63-15.15 251.93 0ZM238.03-18.55Q240.98-18.55 242.3-19.95 243.63-21.35 243.63-24.4L243.63-24.4Q243.63-27.25 242.25-28.58 240.88-29.9 237.73-29.9L237.73-29.9 235.93-29.9 235.93-18.55 238.03-18.55ZM263.88-35.25Q266.88-35.25 269.18-34.2 271.48-33.15 273.43-31.05L273.43-31.05 270.48-27.65Q268.93-29.05 267.45-29.75 265.98-30.45 264.33-30.45L264.33-30.45Q262.43-30.45 261.33-29.28 260.23-28.1 260.23-26.2L260.23-26.2Q260.23-24.3 261.38-23.1 262.53-21.9 265.88-20.6L265.88-20.6Q270.18-18.85 272.2-16.5 274.23-14.15 274.23-9.85L274.23-9.85Q274.23-6.9 272.88-4.48 271.53-2.05 269-0.65 266.48 0.75 263.13 0.75L263.13 0.75Q259.68 0.75 257.13-0.48 254.58-1.7 252.48-3.95L252.48-3.95 255.68-7.45Q257.48-5.85 259.13-5 260.78-4.15 262.73-4.15L262.73-4.15Q265.03-4.15 266.3-5.58 267.58-7 267.58-9.45L267.58-9.45Q267.58-11.6 266.45-12.98 265.33-14.35 262.28-15.5L262.28-15.5Q257.68-17.35 255.65-19.75 253.63-22.15 253.63-25.75L253.63-25.75Q253.63-28.5 254.95-30.65 256.28-32.8 258.63-34.02 260.98-35.25 263.88-35.25L263.88-35.25Z" opacity="1" transform="matrix(1,0,0,1,0,0)" fill="#ca3433" class="undefined-text-0" data-fill-palette-color="primary" id="text-0"></path></svg></g></svg></g><g transform="matrix(1,0,0,1,0,77.93618366612925)"><svg viewBox="0 0 214.63702150468865 36.97430814652816" height="36.97430814652816" width="214.63702150468865"><g transform="matrix(1,0,0,1,0,0)"><svg width="214.63702150468865" viewBox="2.3 -38.2 276.88 47.7" height="36.97430814652816" data-palette-color="#ca3433"><path d="M15.1-27.5L15.1-27.5Q18-27.5 20.13-26.53 22.25-25.55 23.43-23.8 24.6-22.05 24.6-19.7L24.6-19.7Q24.6-17.85 23.83-16.85 23.05-15.85 21.5-15.85L21.5-15.85Q20.1-15.85 19.28-16.65 18.45-17.45 18.45-18.8L18.45-18.8Q18.45-20.05 19.13-20.95 19.8-21.85 20.95-22.2L20.95-22.2Q20.2-23.65 18.82-24.3 17.45-24.95 15.4-24.95L15.4-24.95Q11.3-24.95 9.43-22.28 7.55-19.6 7.55-13.95L7.55-13.95Q7.55-11.5 7.88-9.73 8.2-7.95 8.85-6.7L8.85-6.7Q9.85-4.85 11.5-3.85 13.15-2.85 15.4-2.85L15.4-2.85Q17.7-2.85 19.8-3.85 21.9-4.85 23.4-6.7L23.4-6.7 24.9-5.5Q22.9-2.45 20.3-0.98 17.7 0.5 14.2 0.5L14.2 0.5Q10.7 0.5 8.13-0.93 5.55-2.35 4.1-5.1L4.1-5.1Q2.3-8.45 2.3-13.2L2.3-13.2Q2.3-17.55 3.88-20.75 5.45-23.95 8.35-25.73 11.25-27.5 15.1-27.5ZM53.6-13.75L53.6-13.75Q53.6-10.5 52.62-7.58 51.65-4.65 49.9-2.75L49.9-2.75Q48.4-1.1 46.2-0.3 44 0.5 41.2 0.5L41.2 0.5Q38.45 0.5 36.3-0.28 34.15-1.05 32.65-2.65L32.65-2.65Q30.95-4.5 30.02-7.23 29.1-9.95 29.1-13.15L29.1-13.15Q29.1-16.4 30.05-19.38 31-22.35 32.8-24.25L32.8-24.25Q34.4-25.95 36.52-26.73 38.65-27.5 41.4-27.5L41.4-27.5Q44.15-27.5 46.35-26.73 48.55-25.95 50.05-24.35L50.05-24.35Q51.8-22.5 52.7-19.73 53.6-16.95 53.6-13.75ZM34.45-13.7L34.45-13.7Q34.45-10.65 34.92-8.43 35.4-6.2 36.25-4.75L36.25-4.75Q37.1-3.5 38.27-2.8 39.45-2.1 41.35-2.1L41.35-2.1Q44.8-2.1 46.5-4.45L46.5-4.45Q47.4-5.75 47.82-8.05 48.25-10.35 48.25-13.35L48.25-13.35Q48.25-16.35 47.77-18.6 47.3-20.85 46.45-22.25L46.45-22.25Q45.65-23.55 44.42-24.23 43.2-24.9 41.3-24.9L41.3-24.9Q37.8-24.9 36.25-22.6L36.25-22.6Q34.45-19.8 34.45-13.7ZM57.7-2.05L61.55-3 61.55-24 57.7-24.95 57.7-27 64.9-27 66-22 66.2-22Q67.65-24.5 70.07-26 72.5-27.5 75.25-27.5L75.25-27.5Q77.3-27.5 78.9-26.73 80.5-25.95 81.25-24.8L81.25-24.8Q82.05-23.55 82.55-21.5L82.55-21.5Q84.15-24.3 86.7-25.9 89.25-27.5 92.15-27.5L92.15-27.5Q94.15-27.5 95.75-26.73 97.34-25.95 98.2-24.6L98.2-24.6Q98.8-23.65 99.15-22.15 99.5-20.65 99.65-18.28 99.8-15.9 99.8-12.25L99.8-12.25 99.8-3 103.65-2.05 103.65 0 91.59 0 91.59-2.05 94.95-3 94.95-14.15Q94.95-17.4 94.77-19 94.59-20.6 94.15-21.5L94.15-21.5Q93.55-22.7 92.47-23.33 91.4-23.95 89.95-23.95L89.95-23.95Q88.7-23.95 87.5-23.45 86.3-22.95 85.34-22.1L85.34-22.1Q84.25-21.1 83.72-19.75 83.2-18.4 83.09-16.35L83.09-16.35 83.09-3 86.45-2.05 86.45 0 74.9 0 74.9-2.05 78.25-3 78.25-14.15Q78.25-17.4 78.07-19 77.9-20.6 77.45-21.5L77.45-21.5Q76.84-22.7 75.77-23.33 74.7-23.95 73.25-23.95L73.25-23.95Q72-23.95 70.8-23.45 69.59-22.95 68.65-22.1L68.65-22.1Q67.55-21.1 67.02-19.75 66.5-18.4 66.4-16.35L66.4-16.35 66.4-3 69.75-2.05 69.75 0 57.7 0 57.7-2.05ZM106.44-2.05L110.29-3 110.29-24 106.44-24.95 106.44-27 113.64-27 114.74-22 114.94-22Q116.39-24.5 118.82-26 121.24-27.5 123.99-27.5L123.99-27.5Q126.04-27.5 127.64-26.73 129.24-25.95 129.99-24.8L129.99-24.8Q130.79-23.55 131.29-21.5L131.29-21.5Q132.89-24.3 135.44-25.9 137.99-27.5 140.89-27.5L140.89-27.5Q142.89-27.5 144.49-26.73 146.09-25.95 146.94-24.6L146.94-24.6Q147.54-23.65 147.89-22.15 148.24-20.65 148.39-18.28 148.54-15.9 148.54-12.25L148.54-12.25 148.54-3 152.39-2.05 152.39 0 140.34 0 140.34-2.05 143.69-3 143.69-14.15Q143.69-17.4 143.52-19 143.34-20.6 142.89-21.5L142.89-21.5Q142.29-22.7 141.22-23.33 140.14-23.95 138.69-23.95L138.69-23.95Q137.44-23.95 136.24-23.45 135.04-22.95 134.09-22.1L134.09-22.1Q132.99-21.1 132.47-19.75 131.94-18.4 131.84-16.35L131.84-16.35 131.84-3 135.19-2.05 135.19 0 123.64 0 123.64-2.05 126.99-3 126.99-14.15Q126.99-17.4 126.82-19 126.64-20.6 126.19-21.5L126.19-21.5Q125.59-22.7 124.52-23.33 123.44-23.95 121.99-23.95L121.99-23.95Q120.74-23.95 119.54-23.45 118.34-22.95 117.39-22.1L117.39-22.1Q116.29-21.1 115.77-19.75 115.24-18.4 115.14-16.35L115.14-16.35 115.14-3 118.49-2.05 118.49 0 106.44 0 106.44-2.05ZM154.84-27L163.04-27 163.04-12.85Q163.04-9.65 163.22-8.03 163.39-6.4 163.84-5.5L163.84-5.5Q164.39-4.3 165.49-3.68 166.59-3.05 168.04-3.05L168.04-3.05Q169.39-3.05 170.64-3.55 171.89-4.05 172.84-4.9L172.84-4.9Q174.89-6.75 175.09-10.65L175.09-10.65 175.09-24 170.74-24.95 170.74-27 179.94-27 179.94-3 183.79-2.05 183.79 0 176.04 0.5 175.49-5 175.29-5Q173.84-2.45 171.34-0.98 168.84 0.5 165.99 0.5L165.99 0.5Q164.09 0.5 162.52-0.23 160.94-0.95 160.04-2.2L160.04-2.2Q159.09-3.6 158.64-6.15 158.19-8.7 158.19-12.95L158.19-12.95 158.19-24 154.84-24.95 154.84-27ZM186.84-2.05L190.69-3 190.69-24 186.84-24.95 186.84-27 194.04-27 195.14-22 195.34-22Q196.84-24.55 199.39-26.03 201.94-27.5 204.84-27.5L204.84-27.5Q208.99-27.5 210.99-24.8L210.99-24.8Q211.99-23.4 212.41-20.88 212.84-18.35 212.84-14.05L212.84-14.05 212.84-3 216.69-2.05 216.69 0 204.64 0 204.64-2.05 207.99-3 207.99-14.15Q207.99-17.4 207.81-19 207.64-20.6 207.19-21.5L207.19-21.5Q206.59-22.7 205.46-23.33 204.34-23.95 202.79-23.95L202.79-23.95Q199.89-23.95 197.79-22.1L197.79-22.1Q195.74-20.25 195.54-16.35L195.54-16.35 195.54-3 198.89-2.05 198.89 0 186.84 0 186.84-2.05ZM223.44-3L223.44-24 219.59-24.95 219.59-27 228.29-27 228.29-3 232.14-2.05 232.14 0 219.59 0 219.59-2.05 223.44-3ZM222.74-35.05L222.74-35.05Q222.74-36.5 223.59-37.35 224.44-38.2 225.84-38.2L225.84-38.2Q227.29-38.2 228.14-37.35 228.99-36.5 228.99-35.05L228.99-35.05Q228.99-33.65 228.14-32.8 227.29-31.95 225.84-31.95L225.84-31.95Q224.39-31.95 223.56-32.77 222.74-33.6 222.74-35.05ZM238.68-24.5L233.83-24.5 233.83-26.3 238.68-27 239.33-33.3 243.53-33.9 243.53-27 249.93-27 249.93-24.5 243.53-24.5 243.53-6.65Q243.53-4.95 243.58-4.33 243.63-3.7 243.78-3.3L243.78-3.3Q243.93-2.95 244.33-2.83 244.73-2.7 245.63-2.7L245.63-2.7 249.13-2.7 249.13-1.25Q246.73-0.35 244.91 0.08 243.08 0.5 241.98 0.5L241.98 0.5Q239.73 0.5 239.08-1.35L239.08-1.35Q238.88-1.95 238.78-2.9 238.68-3.85 238.68-5.7L238.68-5.7 238.68-24.5ZM279.18-24.95L276.13-24 267.83-1.2Q266.43 2.65 265.28 5.03 264.13 7.4 262.73 8.45 261.33 9.5 259.13 9.5L259.13 9.5Q256.78 9.5 255.11 8.25 253.43 7 253.43 5.1L253.43 5.1Q253.43 3.7 254.23 2.78 255.03 1.85 256.33 1.85L256.33 1.85Q257.48 1.85 258.16 2.48 258.83 3.1 258.83 4.2L258.83 4.2Q258.83 4.9 258.56 5.55 258.28 6.2 257.83 6.7L257.83 6.7Q257.93 7.2 258.43 7.38 258.93 7.55 259.28 7.55L259.28 7.55Q259.98 7.55 260.58 7.2 261.18 6.85 261.86 5.73 262.53 4.6 263.33 2.2L263.33 2.2 263.93 0.35 253.58-24 250.58-24.95 250.58-27 261.78-27 262.18-24.95 258.63-24 266.08-4.4 266.28-4.4 272.58-24 269.68-24.95 269.68-27 279.18-27 279.18-24.95Z" opacity="1" transform="matrix(1,0,0,1,0,0)" fill="#ca3433" class="undefined-text-1" data-fill-palette-color="secondary" id="text-1"></path></svg></g></svg></g></svg></g></svg></g></svg></g><defs></defs></svg><rect width="395.52" height="114.33879782353974" fill="none" stroke="none" visibility="hidden"></rect></g></svg></g></svg>