<?xml version="1.0" standalone="no"?>
<!DOCTYPE svg PUBLIC "-//W3C//DTD SVG 20010904//EN"
 "http://www.w3.org/TR/2001/REC-SVG-20010904/DTD/svg10.dtd">
<svg version="1.0" xmlns="http://www.w3.org/2000/svg"
 width="928.000000pt" height="330.000000pt" viewBox="0 0 928.000000 330.000000"
 preserveAspectRatio="xMidYMid meet">
<g transform="translate(0.000000,330.000000) scale(0.100000,-0.100000)"
fill="#b3b3b3">
<path d="M765 1750 c-138 -24 -442 -115 -468 -140 -8 -7 11 -90 21 -90 2 0 73
22 156 49 260 84 330 96 561 95 217 0 198 2 640 -88 121 -24 264 -50 319 -57
118 -14 306 -7 425 16 71 14 310 81 318 89 3 3 -28 96 -31 96 -2 0 -29 -9 -62
-20 -89 -31 -239 -67 -327 -79 -178 -25 -305 -12 -698 69 -135 27 -293 57
-350 65 -142 20 -378 18 -504 -5z"/>
</g>
<g transform="translate(0.000000,330.000000) scale(0.100000,-0.100000)"
fill="#b3b3b3" stroke="none">
<path d="M3920 2005 c-136 -23 -468 -120 -493 -145 -9 -8 12 -90 23 -90 3 0
60 18 125 40 269 91 409 114 633 107 161 -5 266 -20 523 -76 292 -64 373 -75
554 -75 190 -1 267 11 462 70 65 20 119 37 120 38 3 3 -28 96 -31 96 -2 0 -29
-9 -62 -20 -190 -66 -377 -95 -549 -86 -127 6 -212 20 -525 85 -107 23 -244
48 -303 56 -128 18 -372 18 -477 0z"/>
<path d="M3920 1505 c-136 -23 -468 -120 -493 -145 -9 -8 12 -90 23 -90 3 0
60 18 125 40 269 91 409 114 633 107 161 -5 266 -20 523 -76 292 -64 373 -75
554 -75 190 -1 267 11 462 70 65 20 119 37 120 38 3 3 -28 96 -31 96 -2 0 -29
-9 -62 -20 -190 -66 -377 -95 -549 -86 -127 6 -212 20 -525 85 -107 23 -244
48 -303 56 -128 18 -372 18 -477 0z"/>
</g>
<g transform="translate(0.000000,330.000000) scale(0.100000,-0.100000)"
fill="#50cd89" stroke="none">
<path d="M7040 2255 c-136 -23 -468 -120 -493 -145 -9 -8 12 -90 23 -90 3 0
60 18 125 40 269 91 409 114 633 107 161 -5 266 -20 523 -76 292 -64 373 -75
554 -75 190 -1 267 11 462 70 65 20 119 37 120 38 3 3 -28 96 -31 96 -2 0 -29
-9 -62 -20 -190 -66 -377 -95 -549 -86 -127 6 -212 20 -525 85 -107 23 -244
48 -303 56 -128 18 -372 18 -477 0z"/>
<path d="M7040 1755 c-136 -23 -468 -120 -493 -145 -9 -8 12 -90 23 -90 3 0
60 18 125 40 269 91 409 114 633 107 161 -5 266 -20 523 -76 292 -64 373 -75
554 -75 190 -1 267 11 462 70 65 20 119 37 120 38 3 3 -28 96 -31 96 -2 0 -29
-9 -62 -20 -190 -66 -377 -95 -549 -86 -127 6 -212 20 -525 85 -107 23 -244
48 -303 56 -128 18 -372 18 -477 0z"/>
<path d="M7040 1255 c-136 -23 -468 -120 -493 -145 -9 -8 12 -90 23 -90 3 0
60 18 125 40 269 91 409 114 633 107 161 -5 266 -20 523 -76 292 -64 373 -75
554 -75 190 -1 267 11 462 70 65 20 119 37 120 38 3 3 -28 96 -31 96 -2 0 -29
-9 -62 -20 -190 -66 -377 -95 -549 -86 -127 6 -212 20 -525 85 -107 23 -244
48 -303 56 -128 18 -372 18 -477 0z"/>
</g>
</svg>
