<?xml version="1.0" standalone="no"?>
<!DOCTYPE svg PUBLIC "-//W3C//DTD SVG 20010904//EN"
 "http://www.w3.org/TR/2001/REC-SVG-20010904/DTD/svg10.dtd">
<svg version="1.0" xmlns="http://www.w3.org/2000/svg"
 width="928.000000pt" height="330.000000pt" viewBox="0 0 928.000000 330.000000"
 preserveAspectRatio="xMidYMid meet">

<g transform="translate(0.000000,330.000000) scale(0.100000,-0.100000)"
fill="#b3b3b3" stroke="none">
<path d="M1617 2672 c-14 -16 -17 -43 -17 -174 0 -137 2 -157 18 -171 26 -24
68 -21 86 5 13 18 16 53 16 174 0 133 -2 153 -18 167 -24 22 -65 21 -85 -1z"/>
<path d="M917 2382 c-10 -10 -17 -27 -17 -38 0 -11 47 -66 113 -132 87 -87
118 -112 139 -112 29 0 58 31 58 62 0 10 -50 68 -112 128 -118 116 -146 131
-181 92z"/>
<path d="M2217 2292 c-112 -112 -127 -141 -91 -176 34 -35 62 -21 175 91 92
90 109 112 109 138 0 39 -16 55 -55 55 -25 0 -48 -18 -138 -108z"/>
<path d="M1555 2076 c-126 -31 -238 -123 -297 -243 -32 -65 -33 -73 -33 -183
0 -111 1 -118 34 -185 95 -194 303 -292 506 -240 173 45 299 185 326 360 48
304 -237 565 -536 491z"/>
<path d="M635 1685 c-30 -29 -31 -35 -4 -69 l20 -26 155 0 c141 0 156 2 174
20 11 11 20 29 20 40 0 11 -9 29 -20 40 -18 18 -33 20 -170 20 -147 0 -152 -1
-175 -25z"/>
<path d="M2342 1694 c-30 -20 -30 -68 0 -88 18 -13 52 -16 168 -16 164 0 190
8 190 60 0 52 -26 60 -190 60 -116 0 -150 -3 -168 -16z"/>
<path d="M1012 1087 c-62 -63 -112 -120 -112 -128 0 -29 31 -59 61 -59 24 0
49 19 135 103 58 56 107 112 111 125 8 33 -22 72 -55 72 -23 0 -51 -23 -140
-113z"/>
<path d="M2127 1182 c-35 -38 -22 -62 91 -175 89 -89 112 -107 138 -107 38 0
54 16 54 55 0 26 -17 48 -109 138 -114 113 -141 126 -174 89z"/>
<path d="M1617 972 c-14 -16 -17 -43 -17 -174 0 -137 2 -157 18 -171 26 -24
68 -21 86 5 13 18 16 53 16 170 0 135 -2 150 -20 168 -25 25 -62 26 -83 2z"/>
</g>
<g transform="translate(0.000000,330.000000) scale(0.100000,-0.100000)"
fill="#50cd89" stroke="none">
<path d="M4599 2673 c-20 -23 -25 -298 -6 -333 16 -31 61 -39 88 -14 17 15 19
32 19 174 0 139 -2 159 -18 173 -24 22 -66 22 -83 0z"/>
<path d="M3902 2388 c-7 -7 -12 -26 -12 -43 0 -26 17 -48 109 -138 113 -112
141 -126 175 -91 36 35 21 64 -92 177 -89 89 -112 107 -138 107 -16 0 -35 -5
-42 -12z"/>
<path d="M5200 2291 c-115 -115 -129 -141 -92 -174 39 -35 63 -23 180 96 62
63 112 120 112 128 0 29 -31 59 -61 59 -24 0 -49 -19 -139 -109z"/>
<path d="M4531 2075 c-171 -48 -296 -189 -324 -364 -35 -231 129 -453 367
-494 161 -27 345 53 432 188 156 244 55 554 -214 655 -74 28 -190 35 -261 15z
m244 -134 c73 -34 146 -111 169 -178 9 -26 16 -76 16 -113 0 -89 -22 -149 -77
-210 -54 -60 -125 -99 -194 -107 l-49 -6 0 322 0 321 38 0 c20 0 64 -13 97
-29z"/>
<path d="M3622 1694 c-14 -10 -22 -26 -22 -44 0 -52 26 -60 190 -60 164 0 190
8 190 60 0 52 -26 60 -190 60 -116 0 -150 -3 -168 -16z"/>
<path d="M5320 1690 c-26 -26 -25 -55 0 -80 19 -19 31 -20 177 -18 154 3 156
3 175 29 16 21 17 29 7 51 -15 35 -30 38 -196 38 -130 0 -145 -2 -163 -20z"/>
<path d="M3999 1093 c-92 -90 -109 -112 -109 -138 0 -39 16 -55 55 -55 25 0
48 18 138 108 113 113 127 141 89 175 -37 34 -60 21 -173 -90z"/>
<path d="M5106 1178 c-9 -12 -16 -31 -16 -42 0 -12 45 -63 110 -128 90 -87
116 -108 140 -108 29 0 60 30 60 59 0 8 -50 65 -112 128 -121 122 -150 137
-182 91z"/>
<path d="M4599 969 c-19 -19 -20 -30 -17 -176 3 -139 5 -156 22 -169 27 -19
60 -18 79 4 24 26 25 306 1 340 -19 28 -58 28 -85 1z"/>
</g>
<g transform="translate(0.000000,330.000000) scale(0.100000,-0.100000)"
fill="#b3b3b3" stroke="none">
<path d="M7586 2674 c-13 -12 -16 -43 -18 -152 0 -75 0 -148 1 -162 4 -46 63
-67 95 -34 13 13 16 43 16 174 0 172 -5 190 -55 190 -13 0 -31 -7 -39 -16z"/>
<path d="M6886 2384 c-34 -33 -20 -59 96 -173 116 -115 148 -132 178 -96 30
37 16 64 -96 176 -114 114 -142 129 -178 93z"/>
<path d="M8187 2292 c-89 -89 -107 -112 -107 -138 0 -37 16 -54 51 -54 22 0
52 24 138 109 112 110 123 129 101 172 -7 13 -21 19 -43 19 -28 0 -47 -15
-140 -108z"/>
<path d="M7527 2079 c-199 -47 -337 -222 -337 -427 0 -128 36 -219 124 -310
193 -201 532 -163 685 76 81 129 83 327 3 457 -99 161 -296 246 -475 204z
m233 -136 c61 -27 128 -96 159 -163 54 -115 26 -265 -66 -357 -66 -66 -123
-88 -228 -88 -80 0 -97 3 -149 30 -107 54 -170 160 -171 285 0 65 4 84 33 143
38 76 108 138 184 163 60 19 181 13 238 -13z"/>
<path d="M6600 1690 c-11 -11 -20 -29 -20 -40 0 -11 9 -29 20 -40 18 -18 33
-20 173 -20 136 0 156 2 170 18 24 26 21 68 -5 86 -18 13 -53 16 -170 16 -135
0 -150 -2 -168 -20z"/>
<path d="M8312 1694 c-27 -19 -29 -64 -4 -87 16 -14 43 -17 170 -17 139 0 154
2 172 20 11 11 20 29 20 40 0 11 -9 29 -20 40 -18 18 -33 20 -168 20 -117 0
-152 -3 -170 -16z"/>
<path d="M6983 1089 c-69 -67 -113 -118 -113 -130 0 -38 19 -59 53 -59 29 0
48 15 146 114 96 98 112 118 106 138 -9 29 -33 48 -59 48 -13 0 -64 -43 -133
-111z"/>
<path d="M8098 1189 c-11 -6 -18 -22 -18 -42 0 -28 15 -48 108 -140 92 -91
112 -107 139 -107 34 0 53 21 53 58 0 28 -217 242 -244 242 -12 0 -29 -5 -38
-11z"/>
<path d="M7586 974 c-13 -13 -16 -44 -16 -179 0 -152 1 -165 19 -175 28 -14
57 -12 75 6 13 13 16 43 16 174 0 172 -5 190 -55 190 -13 0 -31 -7 -39 -16z"/>
</g>
</svg>
